{"glyphs":{":":{"x_min":0,"x_max":248,"ha":248,"o":"m 125 136 q 153 136 173 115 q 192 94 192 62 q 192 30 173 9 q 154 -12 125 -12 q 96 -12 76 10 q 56 31 56 62 q 56 94 76 115 q 95 136 125 136 z m 125 373 q 153 373 173 351 q 192 330 192 298 q 192 266 173 246 q 154 225 125 225 q 96 225 76 246 q 56 267 56 298 q 56 331 76 352 q 95 373 125 373 z"},"$":{"x_min":0,"x_max":435,"ha":435,"o":"m 261 558 l 261 540 q 316 528 348 495 q 381 461 381 416 q 381 393 366 378 q 352 363 330 363 q 300 363 282 402 q 279 409 277 412 q 265 434 249 444 q 233 454 211 454 q 187 454 172 441 q 157 428 157 407 q 157 372 228 343 q 261 330 280 320 q 340 290 366 252 q 392 215 392 160 q 392 99 355 54 q 319 10 261 1 l 261 -30 q 261 -54 250 -67 q 238 -79 215 -79 q 192 -79 180 -67 q 168 -54 168 -30 l 168 -1 q 106 8 67 49 q 28 90 28 142 q 28 173 45 192 q 62 211 89 211 q 112 211 126 197 q 140 182 148 151 q 157 117 173 102 q 190 87 219 87 q 250 87 267 105 q 285 123 285 154 q 285 210 199 247 q 172 258 156 266 q 99 294 73 327 q 48 359 48 404 q 48 455 81 492 q 115 529 168 536 l 168 558 q 168 582 180 594 q 191 606 215 606 q 238 606 250 594 q 261 582 261 558 z"},"?":{"x_min":0,"x_max":407,"ha":407,"o":"m 193 136 q 222 136 241 115 q 261 94 261 63 q 261 31 241 10 q 221 -12 193 -12 q 164 -12 144 9 q 125 30 125 63 q 125 94 145 115 q 164 136 193 136 z m 205 549 q 285 549 333 508 q 382 467 382 400 q 382 331 302 271 q 272 250 259 237 q 245 224 233 193 q 221 162 199 162 q 182 162 172 175 q 162 187 162 209 q 162 254 224 316 l 230 322 l 231 324 q 268 360 268 393 q 268 421 248 438 q 229 454 194 454 q 169 454 155 444 q 140 433 140 415 q 140 394 166 386 q 172 384 175 383 q 186 378 192 368 q 198 359 198 346 q 198 321 179 305 q 160 288 131 288 q 88 288 59 322 q 30 356 30 407 q 30 472 77 510 q 125 549 205 549 z"},"<":{"x_min":0,"x_max":833,"ha":833,"o":"m 704 484 l 248 298 l 704 112 l 704 23 l 129 259 l 129 337 l 704 574 z"},"'":{"x_min":0,"x_max":175,"ha":175,"o":"m 78 418 l 42 642 q 42 646 41 650 q 41 654 41 661 q 41 687 53 700 q 65 714 87 714 q 110 714 122 700 q 134 687 134 661 q 134 653 134 649 q 133 645 133 642 l 97 418 z"},"=":{"x_min":0,"x_max":833,"ha":833,"o":"m 709 238 l 709 157 l 124 157 l 124 238 z m 709 440 l 709 358 l 124 358 l 124 440 z"},"a":{"x_min":0,"x_max":417,"ha":417,"o":"m 354 260 l 354 129 q 354 110 356 102 q 358 94 362 89 q 365 85 374 80 q 397 66 397 41 q 397 21 385 11 q 374 0 353 0 l 302 0 q 276 0 265 13 q 255 26 255 63 l 255 165 l 236 165 q 186 165 156 151 q 127 136 127 113 q 127 101 137 93 q 147 84 162 84 q 169 84 181 91 q 193 98 200 98 q 213 98 222 85 q 231 73 231 53 q 231 23 207 6 q 182 -12 141 -12 q 92 -12 58 21 q 24 55 24 105 q 24 167 79 201 q 134 235 232 235 l 255 235 l 255 250 q 255 270 244 281 q 232 293 212 293 q 192 293 157 269 q 122 245 100 245 q 80 245 66 257 q 53 270 53 288 q 53 324 98 348 q 143 373 213 373 q 282 373 318 344 q 354 315 354 260 z"},"L":{"x_min":0,"x_max":667,"ha":667,"o":"m 387 410 l 387 0 l 450 0 q 476 0 495 6 q 515 12 529 24 q 539 33 555 54 q 585 94 613 94 q 632 94 645 82 q 657 69 657 51 q 657 46 656 41 q 655 36 653 31 l 609 -89 q 604 -102 593 -110 q 582 -117 567 -117 q 553 -117 543 -112 q 534 -107 526 -97 l 263 -97 q 233 -97 221 -86 q 208 -75 208 -50 q 208 -18 250 -5 q 256 -3 259 -2 q 270 1 274 13 q 278 24 278 52 l 278 392 q 278 423 262 438 q 247 452 212 452 q 167 452 137 426 q 108 400 108 360 q 108 337 119 323 q 130 309 148 309 q 157 309 174 316 q 192 323 203 323 q 225 323 239 308 q 253 292 253 269 q 253 232 226 210 q 198 188 152 188 q 88 188 45 234 q 3 281 3 353 q 3 436 55 490 q 107 543 189 543 q 207 543 253 540 q 300 536 330 536 q 343 536 369 537 q 394 538 405 538 q 431 538 445 527 q 459 516 459 496 q 459 467 416 456 q 410 455 407 454 q 396 452 392 442 q 387 432 387 410 z"},"3":{"x_min":0,"x_max":472,"ha":472,"o":"m 178 550 l 328 550 q 369 550 392 529 q 416 508 416 472 q 416 454 407 438 q 399 421 383 407 l 336 368 q 328 362 324 357 q 321 352 321 348 q 321 343 330 341 q 339 338 346 334 q 395 308 418 269 q 442 229 442 174 q 442 95 385 42 q 327 -12 239 -12 q 153 -12 93 44 q 33 100 33 181 q 33 233 57 269 q 82 304 116 304 q 141 304 157 289 q 174 273 174 251 q 174 242 163 217 q 153 193 153 176 q 153 143 179 118 q 206 93 242 93 q 278 93 303 118 q 329 143 329 177 q 329 215 308 237 q 287 258 233 271 q 201 279 188 292 q 175 306 175 331 q 175 342 181 354 q 188 366 199 376 l 274 439 q 275 440 277 441 q 285 448 285 452 q 285 455 281 457 q 277 459 272 459 l 224 458 q 187 458 152 428 q 117 399 100 399 q 83 399 72 410 q 61 421 61 438 q 61 443 62 449 q 63 455 66 462 l 98 546 q 103 558 113 565 q 124 572 138 572 q 155 572 164 567 q 172 562 178 550 z"},";":{"x_min":0,"x_max":248,"ha":248,"o":"m 120 137 q 151 137 170 113 q 189 89 189 49 q 189 0 154 -43 q 119 -86 88 -86 q 77 -86 71 -80 q 64 -74 64 -64 q 64 -55 80 -38 q 95 -21 95 -8 q 95 3 75 25 q 55 48 55 72 q 55 100 73 119 q 92 137 120 137 z m 125 373 q 153 373 173 351 q 192 330 192 298 q 192 266 173 246 q 154 225 125 225 q 96 225 76 246 q 56 267 56 298 q 56 331 76 352 q 95 373 125 373 z"},"J":{"x_min":0,"x_max":465,"ha":465,"o":"m 393 410 l 393 178 q 393 83 383 32 q 373 -19 349 -59 q 314 -119 256 -152 q 198 -185 127 -185 q 56 -185 16 -159 q -23 -133 -23 -86 q -23 -56 -5 -38 q 13 -19 42 -19 q 53 -19 92 -31 q 131 -42 158 -42 q 226 -42 255 12 q 284 67 284 198 l 284 384 q 284 417 268 433 q 251 449 219 449 q 173 449 143 422 q 113 395 113 354 q 113 329 125 313 q 138 297 156 297 q 163 297 182 304 q 201 312 213 312 q 234 312 247 298 q 260 284 260 261 q 260 221 232 198 q 204 174 157 174 q 90 174 46 222 q 2 270 2 343 q 2 432 55 488 q 109 543 195 543 q 208 543 260 540 q 311 536 349 536 q 355 536 375 537 q 395 538 409 538 q 432 538 446 527 q 459 516 459 496 q 459 466 417 455 q 413 454 411 453 q 401 450 397 441 q 393 432 393 410 z"},"V":{"x_min":0,"x_max":722,"ha":722,"o":"m 375 382 l 454 70 q 455 66 456 64 q 458 63 459 63 q 460 63 462 65 q 464 67 465 70 l 544 382 q 544 383 545 387 q 551 407 551 418 q 551 431 546 439 q 541 447 525 453 q 500 462 492 471 q 485 480 485 496 q 485 514 494 525 q 504 537 517 537 l 537 537 l 701 537 q 712 537 723 525 q 733 512 733 496 q 733 477 725 466 q 718 454 701 448 q 685 442 676 431 q 667 420 661 396 l 536 -67 q 529 -91 520 -98 q 510 -106 486 -106 l 432 -106 q 407 -106 398 -98 q 388 -90 382 -67 l 264 369 q 250 419 234 435 q 217 450 186 450 q 151 450 129 427 q 107 403 107 365 q 107 339 119 324 q 131 309 150 309 q 160 309 180 319 q 200 328 211 328 q 230 328 245 311 q 260 294 260 271 q 260 233 231 210 q 203 188 154 188 q 87 188 43 234 q 0 281 0 353 q 0 437 54 490 q 108 543 193 543 q 212 543 261 540 q 309 536 338 536 q 349 536 368 537 q 388 538 395 538 q 413 538 424 527 q 434 516 434 496 q 434 482 427 472 q 419 462 406 457 q 403 456 398 454 q 369 444 369 418 q 369 411 370 403 q 372 395 375 382 z"},"\"":{"x_min":0,"x_max":339,"ha":339,"o":"m 242 418 l 206 642 q 206 646 205 650 q 205 654 205 661 q 205 686 218 700 q 230 714 252 714 q 274 714 286 700 q 299 687 299 662 q 299 656 297 645 q 297 643 297 642 l 261 418 z m 78 418 l 42 642 q 42 646 41 650 q 41 654 41 661 q 41 687 53 700 q 65 714 87 714 q 110 714 122 700 q 134 687 134 661 q 134 653 134 649 q 133 645 133 642 l 97 418 z"},"7":{"x_min":0,"x_max":398,"ha":398,"o":"m 146 550 l 306 550 q 342 550 363 531 q 384 512 384 480 q 384 446 338 391 q 316 363 305 347 q 272 299 256 251 q 240 204 240 155 q 240 138 243 108 q 246 79 246 67 q 246 29 229 9 q 211 -12 179 -12 q 142 -12 120 24 q 98 60 98 120 q 98 174 115 222 q 131 271 168 323 q 198 367 236 406 q 274 445 274 449 q 274 453 268 456 q 263 459 254 459 l 191 458 q 153 458 118 424 q 83 391 65 391 q 47 391 36 404 q 24 417 24 436 q 24 441 25 448 q 27 454 30 462 l 64 546 q 69 559 80 565 q 90 572 104 572 q 118 572 127 567 q 137 562 146 550 z"},"S":{"x_min":0,"x_max":530,"ha":530,"o":"m 403 530 l 441 428 q 443 422 444 417 q 445 411 445 406 q 445 390 433 379 q 420 368 402 368 q 388 368 377 374 q 366 380 349 399 q 348 400 344 404 q 302 451 258 451 q 231 451 213 436 q 195 420 195 397 q 195 357 280 327 q 322 312 346 302 q 433 264 471 211 q 509 157 509 77 q 509 -28 441 -91 q 374 -155 261 -155 q 152 -155 82 -95 q 12 -36 12 57 q 12 129 54 172 q 96 216 166 216 q 208 216 231 199 q 255 182 255 152 q 255 130 240 117 q 224 105 196 105 q 194 105 192 105 q 189 106 188 106 q 159 106 143 91 q 126 77 126 51 q 126 10 164 -19 q 203 -49 257 -49 q 320 -49 359 -14 q 397 21 397 78 q 397 171 228 232 l 215 237 q 145 263 114 301 q 83 339 83 398 q 83 463 126 506 q 169 549 234 549 q 255 549 272 544 q 290 539 307 529 q 316 544 329 552 q 342 560 359 560 q 375 560 386 552 q 397 545 403 530 z"},"}":{"x_min":0,"x_max":500,"ha":500,"o":"m 281 571 l 281 473 q 281 394 309 364 q 336 334 414 327 l 414 294 q 337 288 309 258 q 281 228 281 148 l 281 50 q 281 -46 240 -83 q 199 -119 90 -119 l 85 -119 l 85 -91 q 148 -90 171 -65 q 194 -40 194 37 l 194 104 q 194 215 221 255 q 249 294 323 310 q 250 326 222 365 q 194 405 194 516 l 194 583 q 194 660 171 686 q 147 711 85 712 l 85 740 l 90 740 q 199 740 240 704 q 281 667 281 571 z"},"Z":{"x_min":0,"x_max":461,"ha":461,"o":"m 152 537 l 327 537 q 366 537 388 518 q 410 500 410 467 q 410 455 406 441 q 402 428 394 415 l 147 19 q 146 18 146 17 q 142 11 142 9 q 142 4 146 2 q 149 0 162 0 l 242 0 q 268 0 287 6 q 306 12 321 25 q 331 34 346 54 q 375 94 405 94 q 423 94 436 82 q 449 69 449 51 q 449 47 448 42 q 447 37 445 31 l 401 -88 q 396 -102 385 -110 q 374 -117 359 -117 q 345 -117 336 -113 q 327 -108 319 -97 l 89 -97 q 50 -97 28 -78 q 6 -59 6 -27 q 6 -14 10 -1 q 14 12 22 25 l 269 420 q 270 421 271 423 q 275 430 275 431 q 275 436 271 438 q 268 440 254 440 l 219 440 q 195 440 178 435 q 161 431 148 421 q 142 417 120 390 q 98 363 72 363 q 53 363 40 375 q 27 387 27 404 q 27 408 28 414 q 29 419 32 426 l 69 529 q 73 542 84 549 q 96 556 111 556 q 126 556 135 552 q 145 547 152 537 z"},"x":{"x_min":0,"x_max":426,"ha":426,"o":"m 68 361 l 165 361 q 181 361 190 353 q 199 344 199 330 q 199 317 190 306 q 181 295 181 289 q 181 287 182 284 q 183 282 184 280 l 204 251 q 205 250 206 249 q 208 245 213 245 q 217 245 221 250 q 222 250 222 251 l 239 273 q 242 276 243 281 q 245 287 245 292 q 245 294 234 306 q 223 317 223 332 q 223 346 232 353 q 240 361 256 361 l 350 361 q 375 361 385 354 q 396 346 396 329 q 396 308 368 291 q 341 275 332 263 l 280 195 l 345 113 q 356 99 385 81 q 413 63 413 36 q 413 18 401 9 q 389 0 364 0 l 263 0 q 241 0 230 9 q 219 18 219 36 q 219 48 223 58 q 224 60 224 60 q 224 61 233 71 q 241 82 241 88 q 241 90 240 94 q 238 98 236 102 l 215 132 q 213 136 211 137 q 208 139 205 139 q 201 139 197 134 q 196 132 196 132 l 178 106 q 175 102 174 97 q 172 93 172 90 q 172 85 183 68 q 194 51 194 34 q 194 19 185 9 q 176 0 160 0 l 63 0 q 36 0 25 9 q 14 18 14 39 q 14 65 44 81 q 73 98 82 110 l 139 189 l 87 255 q 77 268 48 285 q 20 302 20 324 q 20 344 31 352 q 42 361 68 361 z"},")":{"x_min":0,"x_max":324,"ha":324,"o":"m 38 516 q 38 531 47 540 q 56 549 70 549 q 92 549 122 523 q 151 498 181 453 q 221 392 240 322 q 259 253 259 167 q 259 81 240 11 q 221 -59 181 -120 q 152 -164 122 -190 q 92 -216 70 -216 q 56 -216 47 -207 q 38 -198 38 -183 q 38 -170 58 -134 q 70 -112 77 -98 q 113 -25 129 36 q 144 98 144 167 q 144 231 130 289 q 117 346 86 411 q 78 428 63 456 q 38 502 38 516 z"},"&":{"x_min":0,"x_max":574,"ha":574,"o":"m 215 152 q 184 134 171 116 q 157 98 157 75 q 157 38 183 12 q 208 -13 246 -13 q 271 -13 292 -2 q 313 10 330 33 q 303 71 274 100 q 246 129 215 152 z m 304 206 q 323 191 343 172 q 362 152 385 127 q 388 132 390 136 q 391 140 391 144 q 391 151 383 167 q 375 183 375 193 q 375 209 385 216 q 395 222 421 222 l 493 222 q 515 222 527 212 q 539 202 539 183 q 539 155 515 144 q 491 133 484 119 l 453 56 q 488 10 507 -39 q 527 -87 527 -125 q 527 -159 510 -180 q 493 -200 464 -200 q 427 -200 404 -127 q 390 -80 378 -50 q 352 -80 316 -93 q 281 -107 229 -107 q 150 -107 99 -60 q 49 -13 49 60 q 49 107 71 143 q 94 178 147 214 q 118 241 104 268 q 91 295 91 326 q 91 385 132 419 q 173 454 242 454 q 308 454 347 419 q 386 384 386 326 q 386 286 366 257 q 346 228 304 206 z m 231 262 q 259 275 273 290 q 287 305 287 322 q 287 340 274 352 q 261 363 240 363 q 218 363 205 352 q 192 341 192 322 q 192 309 202 293 q 211 278 231 262 z"},"_":{"x_min":0,"x_max":500,"ha":500,"o":"m 500 -152 l 500 -236 l 0 -236 l 0 -152 z"},"v":{"x_min":0,"x_max":398,"ha":398,"o":"m 192 119 q 194 112 196 110 q 197 108 200 108 q 204 108 206 116 q 207 118 207 119 l 246 243 q 248 249 249 255 q 250 262 250 268 q 250 278 231 291 q 212 304 212 324 q 212 342 223 352 q 234 361 256 361 l 358 361 q 382 361 393 352 q 404 343 404 324 q 404 304 380 283 q 355 262 345 233 l 265 13 q 262 3 254 -3 q 247 -9 237 -9 l 220 -9 l 161 -9 q 152 -9 145 -3 q 137 3 134 13 l 53 233 q 42 262 18 283 q -6 304 -6 324 q -6 343 6 352 q 17 361 41 361 l 143 361 q 165 361 175 352 q 186 343 186 324 q 186 304 167 291 q 148 278 148 268 q 148 264 149 258 q 150 251 153 243 z"},"O":{"x_min":0,"x_max":556,"ha":556,"o":"m 278 447 q 214 447 180 387 q 146 328 146 216 q 146 104 180 45 q 214 -14 278 -14 q 342 -14 375 45 q 409 104 409 216 q 409 328 375 387 q 341 447 278 447 z m 278 549 q 389 549 456 458 q 523 368 523 216 q 523 65 456 -26 q 389 -116 278 -116 q 167 -116 99 -26 q 32 65 32 216 q 32 367 99 458 q 167 549 278 549 z"},"(":{"x_min":0,"x_max":324,"ha":324,"o":"m 254 549 q 269 549 277 540 q 286 531 286 516 q 286 502 265 464 q 253 443 247 431 q 212 362 197 300 q 181 237 181 167 q 181 102 195 43 q 208 -15 238 -78 q 247 -97 263 -125 q 286 -169 286 -183 q 286 -198 277 -207 q 269 -216 254 -216 q 232 -216 202 -190 q 171 -164 143 -120 q 103 -59 84 11 q 65 81 65 167 q 65 246 81 310 q 96 375 129 431 q 160 484 195 517 q 229 549 254 549 z"},"C":{"x_min":0,"x_max":752,"ha":752,"o":"m 439 379 q 469 360 495 350 q 522 340 544 340 q 572 340 587 354 q 603 367 603 391 q 603 415 584 432 q 566 449 541 449 q 511 449 485 431 q 459 414 439 379 z m 402 283 q 396 260 393 237 q 390 213 390 186 q 390 99 425 43 q 459 -12 512 -12 q 554 -12 579 15 q 604 42 606 89 q 606 90 606 93 q 610 182 664 182 q 695 182 713 157 q 731 133 731 90 q 731 1 669 -58 q 608 -116 512 -116 q 405 -116 339 -33 q 274 51 274 188 q 274 225 280 261 q 287 298 300 335 q 266 358 236 369 q 207 381 183 381 q 153 381 135 363 q 116 346 116 317 q 116 298 127 285 q 138 273 153 273 q 159 273 175 279 q 192 284 203 284 q 223 284 235 269 q 248 254 248 230 q 248 193 221 170 q 194 146 152 146 q 89 146 47 193 q 5 239 5 311 q 5 388 52 436 q 99 484 174 484 q 215 484 253 472 q 291 459 339 429 q 375 488 425 519 q 474 549 535 549 q 613 549 662 503 q 712 457 712 383 q 712 317 666 275 q 620 233 546 233 q 507 233 472 245 q 437 257 402 283 z"},"W":{"x_min":0,"x_max":979,"ha":979,"o":"m 371 382 l 443 70 q 444 67 446 65 q 448 63 449 63 q 451 63 452 65 q 454 67 455 70 l 518 382 q 521 398 522 406 q 523 415 523 420 q 523 442 499 452 l 498 452 q 473 462 466 471 q 458 480 458 496 q 458 518 470 527 q 482 537 510 537 l 658 537 q 686 537 698 527 q 711 518 711 496 q 711 482 704 472 q 697 462 684 457 q 681 456 675 454 q 646 443 646 420 q 646 413 647 403 q 648 394 651 382 l 714 70 q 715 67 717 65 q 718 63 720 63 q 721 63 723 65 q 725 67 726 70 l 798 382 q 798 384 800 390 q 804 408 804 418 q 804 443 775 454 q 769 456 766 457 q 751 463 745 473 q 738 483 738 498 q 738 519 750 528 q 762 537 798 537 l 953 537 q 964 537 975 525 q 985 512 985 496 q 985 477 977 466 q 970 454 953 448 q 937 442 928 430 q 918 418 913 396 l 797 -67 q 791 -89 781 -98 q 771 -106 745 -106 l 695 -106 q 669 -106 658 -97 q 647 -89 643 -67 l 590 218 q 589 221 588 223 q 586 225 584 225 q 582 225 580 223 q 579 222 578 218 l 526 -67 q 522 -88 511 -97 q 500 -106 474 -106 l 424 -106 q 397 -106 388 -98 q 378 -89 372 -67 l 262 369 q 250 419 234 435 q 218 450 187 450 q 152 450 130 426 q 107 402 107 366 q 107 340 120 323 q 134 306 152 306 q 161 306 178 317 q 196 327 209 327 q 229 327 245 310 q 260 293 260 271 q 260 232 231 208 q 202 183 156 183 q 89 183 45 231 q 0 280 0 354 q 0 439 53 491 q 105 543 193 543 q 209 543 260 540 q 311 536 345 536 q 350 536 365 537 q 380 538 391 538 q 409 538 420 527 q 431 515 431 496 q 431 482 424 472 q 417 462 403 457 q 400 456 394 454 q 365 443 365 418 q 365 413 366 407 q 366 402 366 402 q 366 401 368 394 q 370 387 371 382 z"},"A":{"x_min":0,"x_max":708,"ha":708,"o":"m 552 393 l 642 90 l 652 90 q 670 90 682 77 q 695 64 695 46 q 695 33 688 21 q 682 10 663 -8 l 566 -99 q 555 -109 547 -113 q 539 -117 530 -117 q 509 -117 495 -103 q 480 -88 480 -68 q 480 -51 507 -18 q 533 15 533 49 q 533 58 531 68 q 530 78 527 90 l 516 133 l 362 133 l 344 65 q 316 -39 244 -99 q 172 -158 73 -158 q 19 -158 -13 -135 q -45 -111 -45 -71 q -45 -44 -27 -29 q -8 -14 25 -14 q 33 -14 54 -16 q 75 -17 88 -17 q 150 -17 191 23 q 231 62 257 149 l 321 365 q 322 367 323 372 q 330 393 330 406 q 330 425 314 438 q 298 450 273 450 q 227 450 196 423 q 165 396 165 357 q 165 338 173 329 q 181 319 197 319 q 203 319 214 322 q 225 325 230 325 q 246 325 256 313 q 265 301 265 280 q 265 248 241 227 q 217 207 178 207 q 120 207 84 247 q 49 286 49 352 q 49 441 105 491 q 161 542 261 542 q 286 542 347 536 q 408 530 444 530 q 466 530 501 532 q 536 534 550 534 q 577 534 590 523 q 604 511 604 489 q 604 466 576 451 q 549 436 549 417 q 549 411 550 405 q 551 398 552 393 z m 450 379 q 449 381 449 384 q 446 392 440 392 q 433 392 431 382 q 430 380 430 379 l 390 231 l 490 231 z"},"f":{"x_min":0,"x_max":292,"ha":292,"o":"m 174 397 l 174 361 l 230 361 q 252 361 264 350 q 275 339 275 317 q 275 295 264 284 q 252 273 230 273 l 174 273 l 174 130 q 174 110 178 99 q 182 88 191 83 q 195 81 203 77 q 231 62 231 40 q 231 19 220 10 q 209 0 185 0 l 67 0 q 41 0 30 9 q 19 17 19 37 q 19 64 45 77 q 54 81 59 84 q 66 88 69 98 q 72 108 72 130 l 72 273 l 47 273 q 25 273 13 284 q 2 295 2 317 q 2 338 13 350 q 25 361 47 361 l 72 361 l 72 369 q 72 453 115 501 q 158 549 232 549 q 285 549 321 520 q 356 491 356 448 q 356 422 340 406 q 324 390 299 390 q 279 390 266 402 q 253 413 246 436 q 246 438 245 441 q 236 472 218 472 q 198 472 186 452 q 174 432 174 397 z"},"Q":{"x_min":0,"x_max":556,"ha":556,"o":"m 402 164 q 403 187 404 202 q 405 218 405 226 q 405 330 370 388 q 336 447 275 447 q 212 447 179 387 q 146 328 146 216 q 146 104 179 45 q 212 -14 275 -14 q 307 -14 333 2 q 358 19 374 51 q 358 72 340 83 q 322 94 302 94 q 290 94 271 91 q 253 87 247 87 q 228 87 214 102 q 201 116 201 138 q 201 171 229 193 q 258 215 301 215 q 329 215 354 202 q 378 190 402 164 z m 497 65 q 543 0 594 -35 q 644 -69 693 -69 q 730 -69 780 -48 q 830 -27 843 -27 q 868 -27 884 -44 q 900 -62 900 -90 q 900 -138 846 -172 q 792 -206 713 -206 q 637 -206 571 -163 q 504 -119 446 -32 q 416 -73 372 -94 q 328 -116 276 -116 q 166 -116 99 -26 q 32 65 32 216 q 32 367 99 458 q 165 549 275 549 q 385 549 451 458 q 518 367 518 216 q 518 179 513 142 q 507 104 497 65 z"},"w":{"x_min":0,"x_max":583,"ha":583,"o":"m 41 361 l 139 361 q 159 361 170 351 q 180 341 180 321 q 180 301 163 284 q 146 267 146 259 q 146 249 150 234 q 151 230 152 228 l 184 128 q 186 122 187 120 q 188 118 192 118 q 196 118 198 125 q 199 127 199 128 l 231 236 q 234 245 235 250 q 236 255 236 259 q 236 272 218 288 q 200 303 200 322 q 200 341 211 351 q 221 361 242 361 l 342 361 q 362 361 373 351 q 383 341 383 322 q 383 302 365 287 q 347 273 347 259 q 347 253 350 243 q 352 238 352 236 l 384 128 q 386 122 387 120 q 389 118 392 118 q 396 118 398 125 q 399 127 399 128 l 431 228 q 432 229 432 232 q 437 248 437 256 q 437 267 420 284 q 404 301 404 321 q 404 341 414 351 q 424 361 444 361 l 542 361 q 565 361 576 352 q 587 343 587 323 q 587 304 563 282 q 540 261 530 233 l 454 13 q 450 3 443 -3 q 435 -9 426 -9 l 409 -9 l 364 -9 q 356 -9 347 -2 q 338 4 335 13 l 298 134 q 298 135 297 137 q 295 145 291 145 q 287 145 285 137 q 284 135 284 134 l 247 13 q 244 4 235 -2 q 227 -9 218 -9 l 201 -9 l 156 -9 q 148 -9 140 -3 q 133 3 129 13 l 53 233 q 43 261 20 282 q -4 304 -4 323 q -4 343 7 352 q 18 361 41 361 z"},"-":{"x_min":0,"x_max":315,"ha":315,"o":"m 84 230 l 231 230 q 252 230 264 219 q 275 208 275 187 q 275 166 264 156 q 253 145 231 145 l 84 145 q 62 145 51 156 q 39 167 39 187 q 39 208 51 219 q 62 230 84 230 z"},"E":{"x_min":0,"x_max":694,"ha":694,"o":"m 599 535 l 637 429 q 640 420 642 414 q 643 408 643 403 q 643 386 630 375 q 616 364 594 364 q 576 364 554 394 q 542 411 533 419 q 521 430 505 435 q 490 440 462 440 l 385 440 l 385 283 l 442 283 q 443 304 455 316 q 468 328 490 328 q 508 328 519 319 q 530 311 539 286 l 576 186 q 579 178 581 171 q 582 165 582 160 q 582 143 568 132 q 554 121 532 121 q 518 121 490 154 q 462 186 430 186 l 385 186 l 385 0 l 472 0 q 499 0 518 6 q 538 12 552 24 q 562 33 578 54 q 609 94 636 94 q 655 94 667 82 q 680 69 680 51 q 680 48 679 43 q 678 38 675 31 l 632 -87 q 626 -102 616 -109 q 605 -117 590 -117 q 576 -117 566 -112 q 557 -107 549 -97 l 263 -97 q 233 -97 221 -86 q 208 -75 208 -50 q 208 -18 250 -5 q 256 -3 259 -2 q 270 1 274 13 q 278 24 278 52 l 278 387 q 278 419 262 433 q 247 447 212 447 q 166 447 136 421 q 107 395 107 355 q 107 333 119 318 q 130 303 148 303 q 157 303 174 311 q 192 318 203 318 q 224 318 238 303 q 252 288 252 264 q 252 227 225 205 q 197 183 151 183 q 87 183 45 229 q 3 275 3 347 q 3 395 21 435 q 40 474 74 501 q 99 521 131 529 q 162 537 231 537 l 241 537 l 509 537 q 518 551 529 557 q 541 563 556 563 q 571 563 583 555 q 594 548 599 535 z"},"s":{"x_min":0,"x_max":361,"ha":361,"o":"m 300 341 l 323 284 q 325 278 327 272 q 328 266 328 262 q 328 250 317 241 q 307 233 292 233 q 277 233 237 265 q 196 298 167 298 q 152 298 144 291 q 136 283 136 270 q 136 247 190 232 q 215 226 230 221 q 284 204 310 175 q 336 146 336 105 q 336 57 302 25 q 268 -7 216 -7 q 193 -7 175 -2 q 158 3 142 15 q 136 0 125 -9 q 114 -17 99 -17 q 83 -17 72 -8 q 61 0 55 17 l 26 95 q 23 101 22 107 q 21 113 21 119 q 21 133 33 143 q 45 153 63 153 q 75 153 85 148 q 94 144 107 130 l 108 129 q 158 75 194 75 q 211 75 222 83 q 233 92 233 105 q 233 135 169 153 q 149 158 137 162 q 88 178 63 204 q 39 231 39 269 q 39 312 70 341 q 101 370 148 370 q 167 370 183 365 q 198 360 213 350 q 221 365 230 372 q 240 379 254 379 q 271 379 281 371 q 291 363 300 341 z"},">":{"x_min":0,"x_max":833,"ha":833,"o":"m 704 337 l 704 259 l 129 23 l 129 112 l 585 298 l 129 484 l 129 574 z"},"l":{"x_min":0,"x_max":241,"ha":241,"o":"m 174 502 l 174 130 q 174 106 176 98 q 178 90 183 86 q 187 83 198 78 q 228 64 228 37 q 228 18 216 9 q 204 0 178 0 l 70 0 q 43 0 32 9 q 20 18 20 38 q 20 63 50 79 q 58 83 62 85 q 69 89 71 98 q 74 106 74 130 l 74 419 l 66 419 q 46 419 35 428 q 25 437 25 453 q 25 464 30 472 q 34 480 45 489 l 102 534 q 112 542 121 546 q 129 549 140 549 q 158 549 166 538 q 174 528 174 502 z"},"8":{"x_min":0,"x_max":435,"ha":435,"o":"m 218 470 q 192 470 176 453 q 159 435 159 409 q 159 384 176 367 q 192 350 218 350 q 244 350 260 367 q 277 383 277 409 q 277 435 260 453 q 244 470 218 470 z m 218 257 q 180 257 156 233 q 132 208 132 171 q 132 133 156 109 q 180 85 218 85 q 256 85 280 109 q 303 133 303 171 q 303 208 279 233 q 255 257 218 257 z m 218 560 q 291 560 333 522 q 376 484 376 419 q 376 366 337 330 q 329 322 329 320 q 329 314 340 308 q 347 304 351 301 q 381 279 396 246 q 412 212 412 168 q 412 87 359 37 q 306 -12 218 -12 q 130 -12 77 37 q 23 87 23 168 q 23 210 37 242 q 51 275 78 297 q 83 301 93 307 q 106 314 106 320 q 106 322 98 330 q 59 366 59 419 q 59 484 102 522 q 145 560 218 560 z"},"\\":{"x_min":0,"x_max":269,"ha":269,"o":"m 59 519 l 312 -139 q 314 -145 315 -150 q 316 -155 316 -160 q 316 -176 304 -187 q 292 -197 275 -197 q 264 -197 254 -189 q 244 -181 239 -168 l -14 490 q -17 497 -18 502 q -19 507 -19 511 q -19 527 -7 539 q 5 550 22 550 q 34 550 44 542 q 53 534 59 519 z"},"e":{"x_min":0,"x_max":389,"ha":389,"o":"m 210 222 q 239 222 250 228 q 261 233 261 248 q 261 266 245 278 q 228 289 201 289 q 172 289 150 270 q 128 251 125 222 z m 278 151 l 126 151 q 132 120 154 101 q 176 82 206 82 q 234 82 264 104 q 294 127 307 127 q 324 127 336 113 q 348 99 348 78 q 348 43 307 16 q 266 -12 206 -12 q 125 -12 74 40 q 24 93 24 176 q 24 266 73 319 q 121 373 201 373 q 270 373 316 330 q 362 286 362 223 q 362 183 344 167 q 327 151 278 151 z"},"b":{"x_min":0,"x_max":432,"ha":432,"o":"m 155 502 l 155 329 q 155 323 156 321 q 158 319 162 319 q 165 319 175 330 q 216 374 264 374 q 327 374 367 320 q 407 267 407 182 q 407 94 368 41 q 330 -12 267 -12 q 228 -12 204 8 q 180 29 180 63 q 180 80 189 90 q 198 101 210 101 q 215 101 226 100 q 237 98 244 98 q 272 98 289 121 q 306 144 306 182 q 306 226 288 250 q 270 274 238 274 q 195 274 176 242 q 157 209 157 134 l 157 63 q 157 26 147 13 q 136 0 110 0 l 61 0 q 40 0 29 11 q 17 21 17 41 q 17 66 39 79 q 45 83 48 85 q 55 91 57 100 q 60 109 60 129 l 60 419 l 45 419 q 25 419 14 428 q 4 437 4 453 q 4 464 9 472 q 13 480 24 489 l 81 534 q 90 541 101 545 q 112 549 122 549 q 140 549 147 539 q 155 529 155 502 z"},"%":{"x_min":0,"x_max":583,"ha":583,"o":"m 443 202 q 425 202 416 184 q 407 166 407 131 q 407 97 416 79 q 425 60 442 60 q 458 60 468 79 q 477 97 477 131 q 477 165 468 184 q 459 202 443 202 z m 443 274 q 489 274 519 234 q 549 193 549 131 q 549 69 519 28 q 488 -12 443 -12 q 396 -12 366 28 q 336 68 336 131 q 336 195 366 234 q 396 274 443 274 z m 528 495 l 108 6 q 101 -3 92 -8 q 83 -12 73 -12 q 62 -12 52 -2 q 41 9 41 20 q 41 27 45 35 q 48 42 56 52 l 475 541 q 483 551 492 555 q 500 560 511 560 q 522 560 532 550 q 542 539 542 526 q 542 518 539 510 q 535 503 528 495 z m 141 488 q 124 488 115 470 q 106 452 106 417 q 106 383 115 365 q 125 346 141 346 q 158 346 167 365 q 176 383 176 417 q 176 451 167 469 q 158 488 141 488 z m 141 560 q 187 560 217 520 q 247 479 247 417 q 247 355 217 315 q 187 275 141 275 q 95 275 65 314 q 35 354 35 417 q 35 481 65 521 q 94 560 141 560 z"},"m":{"x_min":0,"x_max":611,"ha":611,"o":"m 558 256 l 558 142 l 564 142 q 581 142 591 131 q 602 120 602 103 q 602 82 574 56 l 572 54 l 506 -6 q 498 -14 490 -18 q 483 -21 474 -21 q 458 -21 445 -8 q 432 6 432 23 q 432 32 448 57 q 463 82 463 114 l 463 198 q 463 234 453 249 q 443 263 420 263 q 388 263 373 234 q 358 204 358 142 q 358 120 362 106 q 365 93 373 87 q 375 85 380 82 q 404 64 404 40 q 404 21 394 10 q 384 0 366 0 l 263 0 q 243 0 233 9 q 224 18 224 37 q 224 62 245 76 q 252 82 256 85 q 261 90 264 100 q 266 110 266 130 l 266 198 q 266 234 256 249 q 246 263 223 263 q 192 263 177 234 q 162 205 162 145 q 162 121 165 107 q 168 93 174 87 q 176 85 181 81 q 200 64 200 40 q 200 21 192 10 q 183 0 167 0 l 64 0 q 42 0 32 9 q 22 18 22 37 q 22 63 47 78 q 54 83 58 85 q 64 89 66 99 q 69 109 69 130 l 69 243 l 56 243 q 36 243 26 252 q 15 260 15 277 q 15 288 20 296 q 24 305 35 313 l 93 358 q 104 367 113 370 q 121 373 131 373 q 146 373 155 364 q 164 354 164 339 l 164 329 q 164 323 166 321 q 167 319 171 319 q 174 319 185 330 q 223 373 272 373 q 325 373 356 331 q 364 320 368 320 q 371 320 379 330 q 412 373 465 373 q 512 373 535 344 q 558 315 558 256 z"},"#":{"x_min":0,"x_max":769,"ha":769,"o":"m 477 419 l 343 419 l 297 290 l 431 290 z m 449 713 l 373 500 l 504 500 l 580 713 l 669 713 l 593 500 l 735 500 l 706 419 l 564 419 l 519 291 l 669 291 l 640 209 l 490 209 l 415 -3 l 325 -3 l 401 209 l 270 209 l 195 -3 l 105 -3 l 181 209 l 34 209 l 63 291 l 210 291 l 255 419 l 99 419 l 129 500 l 284 500 l 360 713 z"},",":{"x_min":0,"x_max":243,"ha":243,"o":"m 117 137 q 148 137 168 113 q 187 89 187 49 q 187 0 152 -43 q 117 -86 86 -86 q 75 -86 69 -80 q 62 -74 62 -64 q 62 -55 77 -38 q 93 -21 93 -8 q 93 3 72 25 q 52 48 52 72 q 52 100 70 119 q 89 137 117 137 z"},"n":{"x_min":0,"x_max":426,"ha":426,"o":"m 370 256 l 370 142 l 376 142 q 393 142 403 131 q 414 120 414 103 q 414 82 386 56 l 384 54 l 319 -6 q 311 -14 303 -18 q 296 -21 287 -21 q 271 -21 258 -8 q 245 6 245 23 q 245 32 260 57 q 275 82 275 114 l 275 198 q 275 236 265 250 q 254 263 228 263 q 196 263 181 234 q 166 206 166 145 q 166 117 170 103 q 174 88 182 83 q 187 80 195 76 q 222 62 222 40 q 222 19 212 10 q 201 0 177 0 l 67 0 q 39 0 26 9 q 13 18 13 37 q 13 63 43 77 q 53 81 58 84 q 65 88 69 98 q 72 108 72 130 l 72 243 l 59 243 q 39 243 29 252 q 18 260 18 277 q 18 288 23 296 q 27 305 38 313 l 95 358 q 107 367 115 370 q 123 373 133 373 q 148 373 157 364 q 166 354 166 339 l 166 329 q 166 323 168 321 q 169 319 173 319 q 176 319 186 330 q 223 373 273 373 q 323 373 347 345 q 370 317 370 256 z"},"h":{"x_min":0,"x_max":426,"ha":426,"o":"m 162 502 l 162 329 q 162 323 164 321 q 165 319 169 319 q 172 319 181 329 q 222 373 274 373 q 324 373 347 345 q 370 317 370 256 l 370 142 l 376 142 q 393 142 403 131 q 414 120 414 103 q 414 82 386 56 l 384 54 l 319 -6 q 308 -16 302 -18 q 295 -21 287 -21 q 271 -21 258 -8 q 245 6 245 23 q 245 33 260 57 q 275 81 275 114 l 275 198 q 275 236 265 250 q 254 263 228 263 q 193 263 177 236 q 162 209 162 147 q 162 116 166 102 q 169 88 177 83 q 181 81 190 76 q 218 62 218 40 q 218 19 207 10 q 196 0 172 0 l 62 0 q 34 0 21 9 q 7 18 7 37 q 7 63 39 77 q 48 82 53 84 q 61 88 64 98 q 67 108 67 130 l 67 419 l 54 419 q 34 419 23 428 q 13 437 13 453 q 13 464 18 472 q 22 480 33 489 l 91 534 q 104 543 111 546 q 119 549 128 549 q 146 549 154 539 q 162 529 162 502 z"},"z":{"x_min":0,"x_max":370,"ha":370,"o":"m 136 361 l 268 361 q 299 361 314 349 q 330 338 330 315 q 330 296 307 266 l 307 266 l 181 106 q 178 102 177 98 q 175 95 175 91 q 175 87 178 83 q 181 80 184 80 l 202 80 q 223 80 256 114 q 289 147 309 147 q 328 147 339 137 q 350 127 350 111 q 350 106 349 102 q 348 97 346 92 l 316 16 q 310 0 299 -9 q 288 -17 274 -17 q 265 -17 255 -13 q 245 -9 233 0 l 87 0 q 55 0 40 12 q 24 23 24 48 q 24 66 42 87 q 44 91 45 92 l 178 262 q 178 263 179 264 q 185 272 185 277 q 185 281 182 282 q 180 284 175 284 l 158 284 q 139 284 112 257 q 84 230 65 230 q 49 230 38 240 q 27 250 27 263 q 27 267 28 272 q 29 277 32 284 l 55 341 q 64 363 73 371 q 83 379 99 379 q 109 379 118 375 q 126 371 136 361 z"},"B":{"x_min":0,"x_max":632,"ha":632,"o":"m 190 537 l 363 537 q 453 537 505 497 q 556 457 556 388 q 556 339 538 307 q 520 274 479 251 q 547 229 580 182 q 614 135 614 60 q 614 -50 531 -118 q 448 -185 310 -185 q 174 -185 90 -114 q 5 -42 5 69 q 5 133 38 178 q 71 223 113 223 q 140 223 155 208 q 170 193 170 167 q 170 152 165 139 q 160 126 147 110 q 132 92 127 77 q 122 62 122 43 q 122 -15 171 -51 q 220 -86 301 -86 q 388 -86 442 -44 q 497 -2 497 62 q 497 126 452 164 q 407 202 330 202 q 320 202 314 202 q 309 202 304 201 l 304 165 l 319 165 q 340 165 353 153 q 365 141 365 121 q 365 108 360 98 q 354 87 334 67 l 251 -15 q 244 -22 233 -27 q 223 -31 212 -31 q 192 -31 177 -16 q 161 0 161 19 q 161 32 179 62 q 197 93 197 127 l 197 147 l 197 410 q 197 431 193 440 q 190 449 181 453 q 177 455 167 457 q 131 466 131 496 q 131 513 143 525 q 155 537 171 537 z m 304 437 l 304 303 l 364 303 q 406 303 425 319 q 445 335 445 370 q 445 405 425 421 q 406 437 364 437 z"},"K":{"x_min":0,"x_max":640,"ha":640,"o":"m 369 410 l 369 331 q 369 313 371 308 q 373 302 377 302 q 383 302 391 314 q 393 316 394 318 l 463 412 q 470 421 473 429 q 476 437 476 445 q 476 457 465 472 q 453 488 453 500 q 453 520 464 528 q 476 537 502 537 l 609 537 q 639 537 651 528 q 664 518 664 497 q 664 481 657 471 q 650 461 630 452 q 607 441 585 410 q 582 406 580 403 l 465 245 q 561 70 630 1 q 699 -69 770 -69 q 808 -69 857 -48 q 907 -27 920 -27 q 945 -27 961 -44 q 977 -62 977 -90 q 977 -138 923 -172 q 869 -206 790 -206 q 708 -206 635 -153 q 562 -101 478 23 q 440 79 410 136 q 380 193 377 193 q 373 193 371 191 q 369 189 369 184 l 369 175 l 369 84 l 377 84 q 398 84 410 72 q 423 61 423 41 q 423 19 393 -11 l 391 -13 l 304 -99 q 294 -108 286 -113 q 277 -117 268 -117 q 247 -117 232 -103 q 218 -88 218 -68 q 218 -49 234 -30 q 250 -11 254 -4 q 260 8 262 26 q 265 43 265 90 l 265 392 q 265 425 251 439 q 237 452 204 452 q 161 452 133 426 q 106 400 106 360 q 106 337 116 323 q 127 309 144 309 q 152 309 168 316 q 184 323 194 323 q 214 323 227 308 q 240 292 240 269 q 240 232 214 210 q 188 188 145 188 q 83 188 43 234 q 3 281 3 353 q 3 436 53 490 q 103 543 181 543 q 191 543 242 540 q 293 536 333 536 q 338 536 355 537 q 372 538 384 538 q 405 538 417 527 q 429 516 429 496 q 429 466 389 454 q 387 454 385 453 q 376 451 373 442 q 369 433 369 410 z"},"R":{"x_min":0,"x_max":574,"ha":574,"o":"m 416 161 q 503 25 559 -22 q 614 -69 675 -69 q 712 -69 763 -48 q 813 -27 826 -27 q 851 -27 867 -44 q 883 -62 883 -90 q 883 -138 829 -172 q 775 -206 696 -206 q 542 -206 344 85 l 337 96 l 300 151 q 296 157 294 159 q 292 161 289 161 q 285 161 283 159 q 281 157 281 152 l 281 143 l 281 80 l 284 80 q 305 80 318 68 q 331 56 331 36 q 331 24 325 13 q 319 2 299 -18 l 217 -99 q 208 -108 199 -112 q 190 -116 180 -116 q 159 -116 145 -102 q 130 -87 130 -67 q 130 -48 146 -29 q 163 -10 166 -3 q 172 9 174 26 q 177 44 177 90 l 177 262 q 177 279 175 290 q 172 301 167 308 q 164 312 157 318 q 138 333 138 352 q 138 373 150 382 q 161 391 191 391 l 253 391 q 280 391 293 382 q 305 374 305 354 q 305 345 296 323 q 286 300 286 276 l 286 242 q 293 242 301 241 q 309 241 320 241 q 376 241 407 266 q 439 291 439 335 q 439 389 390 419 q 341 449 253 449 q 181 449 142 422 q 104 394 104 343 q 104 312 129 275 q 154 239 154 222 q 154 200 139 185 q 124 170 103 170 q 62 170 32 215 q 3 261 3 326 q 3 429 73 489 q 144 549 267 549 q 394 549 472 487 q 550 425 550 328 q 550 265 515 221 q 479 177 416 161 z"},"T":{"x_min":0,"x_max":546,"ha":546,"o":"m 375 422 l 375 90 l 390 90 q 411 90 423 78 q 436 66 436 46 q 436 33 429 22 q 423 10 404 -8 l 308 -99 q 297 -109 289 -113 q 280 -117 271 -117 q 250 -117 236 -103 q 221 -88 221 -68 q 221 -49 238 -30 q 254 -10 257 -4 q 263 8 266 26 q 268 43 268 90 l 268 440 q 249 445 232 448 q 215 450 200 450 q 159 450 132 425 q 106 399 106 360 q 106 337 117 323 q 128 309 145 309 q 154 309 170 316 q 187 323 197 323 q 217 323 231 308 q 244 292 244 269 q 244 232 218 210 q 191 188 148 188 q 85 188 43 235 q 1 281 1 353 q 1 440 54 491 q 108 543 200 543 q 235 543 297 531 q 359 519 385 519 q 408 519 423 525 q 438 531 448 543 q 451 546 456 554 q 477 586 504 586 q 528 586 542 568 q 557 550 557 520 q 557 472 526 443 q 494 414 441 414 q 428 414 413 416 q 397 418 375 422 z"},"P":{"x_min":0,"x_max":602,"ha":602,"o":"m 296 125 l 296 85 l 306 85 q 327 85 340 73 q 353 62 353 42 q 353 29 346 18 q 340 6 321 -12 l 229 -99 q 218 -109 210 -113 q 202 -117 193 -117 q 172 -117 158 -103 q 143 -88 143 -68 q 143 -49 159 -30 q 176 -10 179 -4 q 185 8 188 26 q 190 43 190 90 l 190 262 q 190 279 188 290 q 185 301 180 308 q 177 312 170 318 q 151 333 151 352 q 151 373 163 382 q 174 391 204 391 l 266 391 q 292 391 305 382 q 318 373 318 354 q 318 344 307 320 q 297 296 297 276 q 297 241 319 220 q 341 199 377 199 q 414 199 438 225 q 461 251 461 293 q 461 364 412 404 q 363 444 276 444 q 196 444 154 415 q 111 386 111 332 q 111 299 138 260 q 166 220 166 203 q 166 180 150 164 q 134 149 109 149 q 66 149 33 197 q 1 246 1 314 q 1 421 76 485 q 151 549 279 549 q 411 549 491 481 q 572 413 572 304 q 572 211 522 155 q 473 99 391 99 q 366 99 342 105 q 319 112 296 125 z"},"|":{"x_min":0,"x_max":500,"ha":500,"o":"m 294 764 l 294 -236 l 207 -236 l 207 764 z"},"t":{"x_min":0,"x_max":306,"ha":306,"o":"m 172 410 l 172 361 l 234 361 q 260 361 273 350 q 287 338 287 317 q 287 295 274 284 q 261 273 234 273 l 172 273 l 172 131 q 172 109 175 102 q 178 95 186 95 q 192 95 209 110 q 226 125 241 125 q 260 125 273 111 q 285 96 285 74 q 285 38 254 13 q 223 -12 179 -12 q 123 -12 98 18 q 73 47 73 116 l 73 273 l 40 273 q 18 273 6 284 q -5 294 -5 316 q -5 342 31 374 q 49 390 59 401 q 70 413 86 435 q 112 472 134 472 q 151 472 161 460 q 172 448 172 428 z"},"M":{"x_min":0,"x_max":787,"ha":787,"o":"m 439 489 l 477 386 l 478 385 q 485 363 492 363 q 496 363 500 368 q 503 373 508 386 l 546 489 q 557 519 568 528 q 579 537 599 537 l 739 537 q 756 537 767 526 q 777 515 777 496 q 777 467 737 456 q 731 455 729 454 q 720 451 715 441 q 711 431 711 410 l 711 90 l 726 90 q 747 90 759 78 q 772 66 772 46 q 772 33 766 21 q 759 9 741 -8 l 644 -99 q 633 -109 625 -113 q 617 -117 608 -117 q 587 -117 573 -103 q 558 -88 558 -68 q 558 -49 574 -30 q 590 -10 593 -4 q 600 9 602 29 q 605 48 605 90 l 605 330 q 605 336 603 339 q 601 342 595 342 q 590 342 587 339 q 583 336 582 331 l 550 239 q 542 218 529 207 q 515 197 494 197 q 473 197 460 207 q 446 218 439 239 l 406 331 q 405 336 401 339 q 397 342 392 342 q 387 342 385 340 q 383 337 383 330 l 383 197 q 383 102 373 56 q 363 10 339 -29 q 302 -90 241 -124 q 180 -158 109 -158 q 56 -158 24 -135 q -7 -111 -7 -72 q -7 -44 11 -29 q 30 -14 63 -14 q 70 -14 91 -16 q 112 -18 126 -18 q 196 -18 237 38 q 277 94 277 192 l 277 226 l 277 392 q 277 424 261 438 q 246 452 212 452 q 166 452 136 426 q 106 399 106 360 q 106 337 117 323 q 129 309 147 309 q 156 309 173 316 q 190 323 201 323 q 223 323 237 308 q 251 292 251 269 q 251 232 223 210 q 195 188 149 188 q 84 188 42 234 q 0 281 0 353 q 0 436 52 489 q 103 543 182 543 q 194 543 233 541 q 273 538 301 538 q 326 538 353 540 q 380 541 384 541 q 420 541 438 492 z"},"g":{"x_min":0,"x_max":417,"ha":417,"o":"m 207 294 q 176 294 159 281 q 141 269 141 247 q 141 227 159 214 q 177 202 207 202 q 238 202 257 214 q 275 227 275 247 q 275 269 256 281 q 238 294 207 294 z m 105 149 l 105 155 q 75 171 60 196 q 44 220 44 249 q 44 299 87 334 q 129 369 192 369 q 202 369 215 367 q 229 366 250 362 l 254 366 q 245 380 240 392 q 236 404 236 416 q 236 446 260 467 q 283 488 319 488 q 350 488 373 468 q 397 447 397 421 q 397 401 387 388 q 376 376 360 376 q 351 376 337 383 q 324 390 320 390 q 312 390 306 384 q 300 378 300 370 q 300 354 326 334 q 330 331 331 330 q 353 312 363 292 q 372 271 372 242 q 372 202 342 174 q 312 146 257 136 q 234 132 193 131 q 142 131 142 109 q 142 97 152 92 q 161 86 182 86 l 268 86 q 344 86 379 62 q 415 37 415 -14 q 415 -76 357 -115 q 299 -154 204 -154 q 118 -154 67 -130 q 17 -106 17 -65 q 17 -41 33 -25 q 50 -10 75 -10 q 92 -10 105 -16 q 118 -23 140 -46 q 142 -48 145 -51 q 177 -83 222 -83 q 261 -83 285 -67 q 310 -52 310 -28 q 310 1 219 3 q 201 4 192 4 q 99 7 66 23 q 33 40 33 78 q 33 102 52 120 q 70 139 105 149 z"},"j":{"x_min":0,"x_max":250,"ha":250,"o":"m 197 321 l 197 76 q 197 10 192 -20 q 188 -50 176 -73 q 156 -111 120 -132 q 83 -154 39 -154 q -10 -154 -42 -125 q -75 -96 -75 -55 q -75 -24 -61 -9 q -47 7 -21 7 q -4 7 7 -1 q 19 -10 24 -25 q 25 -30 28 -39 q 37 -72 55 -72 q 78 -72 87 -51 q 97 -30 97 23 l 97 238 l 89 238 q 69 238 58 247 q 48 255 48 272 q 48 283 53 292 q 58 301 68 309 l 125 353 q 135 361 144 365 q 152 368 163 368 q 181 368 189 357 q 197 347 197 321 z m 146 549 q 175 549 195 526 q 215 504 215 471 q 215 437 196 416 q 176 394 146 394 q 116 394 96 416 q 76 438 76 471 q 76 505 96 527 q 116 549 146 549 z"},"i":{"x_min":0,"x_max":241,"ha":241,"o":"m 174 321 l 174 130 q 174 106 176 98 q 178 90 183 86 q 187 83 198 78 q 228 64 228 37 q 228 18 216 9 q 204 0 178 0 l 70 0 q 43 0 32 9 q 20 18 20 38 q 20 63 50 79 q 58 83 62 85 q 69 89 71 98 q 74 106 74 130 l 74 238 l 66 238 q 46 238 35 247 q 25 255 25 272 q 25 283 30 292 q 34 300 45 309 l 102 353 q 112 361 121 365 q 129 368 140 368 q 158 368 166 357 q 174 347 174 321 z m 123 549 q 152 549 172 526 q 192 504 192 471 q 192 437 173 416 q 153 394 123 394 q 93 394 73 416 q 53 438 53 471 q 53 505 73 527 q 93 549 123 549 z"},"y":{"x_min":0,"x_max":398,"ha":398,"o":"m 39 361 l 148 361 q 170 361 180 352 q 191 343 191 324 q 191 305 172 291 q 153 277 153 265 q 153 260 154 254 q 156 249 158 243 l 198 155 q 199 153 200 150 q 203 143 207 143 q 210 143 213 151 q 214 154 215 155 l 250 243 q 252 249 254 254 q 255 259 255 265 q 255 277 236 291 q 217 305 217 324 q 217 343 228 352 q 238 361 260 361 l 354 361 q 378 361 389 352 q 400 343 400 324 q 400 303 375 281 q 350 260 340 233 l 259 1 q 229 -85 191 -120 q 153 -154 93 -154 q 40 -154 6 -127 q -28 -100 -28 -59 q -28 -32 -12 -15 q 3 2 28 2 q 45 2 59 -6 q 73 -15 81 -30 q 83 -35 87 -43 q 98 -66 112 -66 q 125 -66 138 -46 q 151 -25 163 13 l 52 243 q 38 272 16 291 q -7 310 -7 327 q -7 345 4 353 q 14 361 39 361 z"},"@":{"x_min":0,"x_max":986,"ha":986,"o":"m 637 402 l 662 485 l 746 485 l 662 184 l 661 181 q 654 152 654 137 q 654 113 665 100 q 675 87 694 87 q 710 87 735 98 q 759 108 780 125 q 833 168 862 233 q 891 299 891 378 q 891 514 798 598 q 705 681 552 681 q 467 681 391 649 q 315 618 258 559 q 198 498 168 419 q 138 341 138 245 q 138 161 167 95 q 196 30 255 -19 q 307 -62 375 -85 q 444 -108 523 -108 q 604 -108 680 -83 q 755 -58 828 -6 l 846 -29 q 774 -83 692 -111 q 611 -138 523 -138 q 431 -138 354 -115 q 276 -93 219 -50 q 146 5 107 85 q 68 166 68 262 q 68 361 110 448 q 152 535 232 601 q 298 655 377 683 q 457 711 546 711 q 716 711 818 619 q 920 527 920 374 q 920 296 891 229 q 862 161 809 113 q 779 86 746 73 q 713 59 681 59 q 633 59 607 85 q 580 110 577 159 q 546 108 510 84 q 474 60 429 60 q 364 60 325 105 q 287 150 287 226 q 287 281 311 333 q 335 385 380 428 q 413 460 452 477 q 491 493 531 493 q 575 493 602 470 q 629 447 637 402 z m 610 377 q 610 417 592 442 q 573 466 543 466 q 512 466 486 444 q 460 422 434 372 q 406 320 392 270 q 377 220 377 179 q 377 139 395 114 q 413 90 441 90 q 471 90 497 110 q 523 130 550 175 q 577 222 594 277 q 610 333 610 377 z"},".":{"x_min":0,"x_max":243,"ha":243,"o":"m 122 136 q 150 136 170 115 q 190 93 190 62 q 190 30 170 9 q 151 -12 122 -12 q 93 -12 73 10 q 53 31 53 62 q 53 94 73 115 q 92 136 122 136 z"},"p":{"x_min":0,"x_max":432,"ha":432,"o":"m 157 134 l 157 9 l 161 9 q 177 9 188 -2 q 199 -13 199 -30 q 199 -42 193 -52 q 187 -63 169 -79 l 103 -139 q 94 -147 87 -151 q 81 -154 71 -154 q 55 -154 42 -141 q 30 -127 30 -110 q 30 -101 45 -76 q 60 -51 60 -19 l 60 243 l 47 243 q 27 243 16 252 q 6 260 6 277 q 6 288 10 296 q 15 305 26 313 l 84 358 q 97 368 105 371 q 113 374 122 374 q 137 374 146 364 q 155 354 155 339 q 155 337 154 334 q 154 331 154 329 q 154 324 156 321 q 158 319 162 319 q 166 319 176 331 q 214 374 261 374 q 326 374 366 321 q 407 268 407 182 q 407 97 369 43 q 331 -11 275 -11 q 236 -11 210 10 q 185 32 185 64 q 185 80 193 90 q 201 99 214 99 q 219 99 229 99 q 238 98 242 98 q 271 98 289 121 q 306 143 306 182 q 306 226 288 250 q 270 274 238 274 q 195 274 176 242 q 157 210 157 134 z"},"X":{"x_min":0,"x_max":644,"ha":644,"o":"m 356 414 l 391 361 q 392 360 393 358 q 397 351 403 351 q 409 351 415 359 q 416 360 416 361 l 445 412 q 449 419 452 426 q 454 432 454 436 q 454 446 436 461 q 417 477 417 496 q 417 514 427 525 q 437 537 450 537 l 470 537 l 600 537 q 612 537 622 525 q 633 512 633 496 q 633 480 627 471 q 622 462 604 452 q 577 436 558 402 q 555 398 554 396 l 473 256 l 580 90 l 595 90 q 616 90 628 78 q 641 66 641 46 q 641 33 634 21 q 627 9 609 -8 l 511 -99 q 500 -109 492 -113 q 484 -117 475 -117 q 456 -117 441 -102 q 426 -86 426 -67 q 426 -49 452 -19 q 478 12 478 37 q 478 46 475 56 q 473 65 468 73 l 424 145 q 420 152 418 153 q 416 155 411 155 q 405 155 401 148 q 400 146 399 145 l 319 7 q 266 -84 210 -121 q 153 -158 72 -158 q 17 -158 -16 -135 q -48 -111 -48 -71 q -48 -44 -29 -29 q -11 -14 23 -14 q 31 -14 52 -16 q 73 -17 85 -17 q 133 -17 173 9 q 213 35 243 86 l 339 249 l 241 405 l 241 405 q 211 453 178 453 q 151 453 131 431 q 111 410 111 379 q 111 352 126 333 q 142 315 162 315 q 173 315 192 327 q 212 339 228 339 q 249 339 263 322 q 277 305 277 280 q 277 243 246 220 q 215 197 165 197 q 96 197 49 243 q 3 289 3 359 q 3 437 56 490 q 109 543 191 543 q 210 543 247 540 q 284 537 300 537 q 302 537 317 538 q 332 538 345 538 q 363 538 374 527 q 385 515 385 496 q 385 478 366 459 q 348 441 348 434 q 348 430 350 425 q 352 420 356 414 z"},"*":{"x_min":0,"x_max":486,"ha":486,"o":"m 243 549 q 264 549 276 535 q 289 521 289 499 q 289 473 272 441 q 255 408 255 399 q 255 394 256 391 q 257 388 259 388 q 265 388 273 397 q 282 406 298 432 q 312 454 330 467 q 348 479 365 479 q 384 479 397 465 q 410 451 410 430 q 410 410 391 396 q 372 382 339 378 q 331 377 317 376 q 272 372 272 364 q 272 354 309 352 q 334 351 348 348 q 376 343 393 328 q 410 313 410 294 q 410 275 396 262 q 383 248 364 248 q 349 248 333 259 q 316 269 303 288 q 297 295 289 310 q 270 339 259 339 q 256 339 256 338 q 255 336 255 333 q 255 318 272 285 q 289 251 289 228 q 289 206 276 192 q 264 178 243 178 q 222 178 209 191 q 197 205 197 227 q 197 252 214 286 q 231 320 231 331 q 231 335 230 337 q 229 339 227 339 q 215 339 195 308 q 188 296 184 290 q 169 270 153 259 q 137 248 121 248 q 103 248 89 261 q 76 275 76 294 q 76 314 93 329 q 109 343 139 348 q 151 350 174 351 q 214 354 214 364 q 214 373 174 375 q 150 377 138 379 q 110 383 93 398 q 76 413 76 433 q 76 452 90 465 q 103 479 122 479 q 139 479 157 466 q 175 453 189 431 l 190 430 q 217 388 227 388 q 229 388 231 391 q 232 394 232 399 q 232 407 214 441 q 197 475 197 501 q 197 522 210 535 q 223 549 243 549 z"},"Y":{"x_min":0,"x_max":634,"ha":634,"o":"m 349 411 l 388 340 q 391 334 394 332 q 396 330 400 330 q 404 330 406 332 q 408 333 412 340 l 453 412 q 456 417 458 423 q 459 428 459 432 q 459 448 437 463 q 414 479 414 500 q 414 516 424 526 q 435 537 449 537 l 468 537 l 609 537 q 621 537 632 525 q 642 512 642 496 q 642 480 636 471 q 631 462 613 452 q 585 437 567 404 q 564 398 563 396 l 458 215 l 458 90 l 474 90 q 495 90 507 78 q 520 66 520 46 q 520 33 513 22 q 507 10 488 -8 l 391 -99 q 380 -109 372 -113 q 364 -117 355 -117 q 334 -117 320 -103 q 305 -88 305 -68 q 305 -49 322 -30 q 338 -10 341 -4 q 347 8 350 26 q 352 43 352 90 l 352 197 l 232 405 l 231 407 q 204 453 170 453 q 141 453 122 431 q 103 409 103 375 q 103 344 117 325 q 132 307 156 307 q 165 307 185 320 q 204 332 219 332 q 240 332 254 316 q 269 299 269 276 q 269 236 240 212 q 210 188 161 188 q 92 188 46 234 q 0 281 0 351 q 0 438 51 490 q 102 543 186 543 q 205 543 238 541 q 272 538 287 538 q 297 538 316 539 q 334 540 342 540 q 364 540 377 528 q 390 516 390 496 q 390 477 365 463 q 341 449 341 434 q 341 429 343 424 q 345 418 349 411 z"},"c":{"x_min":0,"x_max":353,"ha":353,"o":"m 206 -12 q 124 -12 74 41 q 24 93 24 181 q 24 264 73 318 q 123 373 195 373 q 254 373 293 346 q 333 318 333 280 q 333 259 320 245 q 307 231 288 231 q 272 231 241 252 q 209 273 190 273 q 159 273 142 252 q 125 230 125 191 q 125 145 145 116 q 164 87 194 87 q 211 87 243 106 q 274 126 292 126 q 312 126 325 112 q 338 99 338 78 q 338 42 299 15 q 260 -12 206 -12 z"},"!":{"x_min":0,"x_max":259,"ha":259,"o":"m 130 136 q 159 136 178 115 q 198 93 198 62 q 198 30 179 9 q 159 -12 130 -12 q 101 -12 82 9 q 62 31 62 62 q 62 95 81 115 q 100 136 130 136 z m 130 549 q 164 549 181 527 q 199 504 199 462 q 199 440 183 370 q 166 299 164 244 q 164 236 164 224 q 162 161 130 161 q 97 161 96 224 q 95 237 95 244 q 93 300 76 370 q 60 440 60 462 q 60 504 78 527 q 96 549 130 549 z"},"/":{"x_min":0,"x_max":269,"ha":269,"o":"m 283 490 l 30 -168 q 25 -181 15 -189 q 5 -197 -6 -197 q -24 -197 -36 -186 q -48 -176 -48 -160 q -48 -156 -47 -151 q -46 -146 -43 -139 l 210 519 q 216 535 225 542 q 234 550 246 550 q 263 550 276 538 q 288 527 288 511 q 288 507 287 502 q 286 497 283 490 z"},"[":{"x_min":0,"x_max":324,"ha":324,"o":"m 133 537 l 257 537 q 279 537 290 526 q 302 515 302 495 q 302 475 290 465 q 279 454 257 454 l 216 454 q 203 454 198 449 q 194 445 194 431 l 194 -98 q 194 -112 198 -116 q 203 -121 216 -121 l 257 -121 q 279 -121 290 -132 q 302 -142 302 -162 q 302 -182 290 -193 q 279 -204 257 -204 l 133 -204 q 116 -204 107 -194 q 97 -184 97 -167 l 97 500 q 97 517 107 527 q 116 537 133 537 z"},"6":{"x_min":0,"x_max":472,"ha":472,"o":"m 32 269 q 32 402 92 481 q 151 560 251 560 q 318 560 369 521 q 420 481 420 434 q 420 410 405 395 q 391 380 366 380 q 351 380 337 388 q 324 396 312 411 q 308 416 302 425 q 276 461 243 461 q 204 461 176 421 q 148 381 148 338 q 148 332 149 329 q 150 325 153 325 q 156 325 166 333 q 209 366 260 366 q 337 366 391 313 q 445 259 445 183 q 445 99 390 43 q 334 -12 251 -12 q 151 -12 92 64 q 32 140 32 269 z m 245 275 q 207 275 182 248 q 157 221 157 180 q 157 138 182 112 q 206 85 245 85 q 284 85 309 112 q 333 138 333 180 q 333 221 308 248 q 283 275 245 275 z"},"r":{"x_min":0,"x_max":333,"ha":333,"o":"m 176 208 l 176 149 q 176 119 180 104 q 185 90 194 85 q 199 83 208 78 q 241 64 241 40 q 241 20 228 10 q 215 0 188 0 l 76 0 q 48 0 35 9 q 22 18 22 37 q 22 64 54 78 q 62 82 67 84 q 75 89 78 98 q 81 108 81 130 l 81 243 l 68 243 q 48 243 37 252 q 27 260 27 277 q 27 288 31 296 q 36 305 47 313 l 104 358 q 114 366 123 370 q 131 373 142 373 q 163 373 171 356 q 179 339 183 339 q 184 339 202 356 q 221 373 248 373 q 282 373 302 350 q 322 326 322 287 q 322 252 305 233 q 289 214 259 214 q 243 214 233 223 q 223 231 223 246 q 223 247 224 249 q 224 251 224 252 q 224 262 219 268 q 214 274 206 274 q 191 274 184 257 q 176 240 176 208 z"},"2":{"x_min":0,"x_max":435,"ha":435,"o":"m 341 270 l 171 112 q 169 110 167 107 q 166 104 166 102 q 166 97 169 95 q 172 93 181 93 l 187 93 l 228 94 q 231 94 236 94 q 280 96 305 116 q 313 123 327 139 q 354 170 380 170 q 396 170 408 158 q 421 146 421 131 q 421 123 420 119 q 420 115 419 113 l 378 9 q 374 -3 363 -10 q 353 -16 338 -16 q 324 -16 315 -12 q 306 -9 299 0 l 127 0 q 91 0 65 28 q 39 57 39 95 q 39 133 85 175 l 86 176 l 248 328 q 249 329 252 332 q 288 364 288 397 q 288 425 268 442 q 249 459 215 459 q 182 459 161 443 q 140 427 140 402 q 140 383 161 360 q 182 337 182 323 q 182 301 164 284 q 145 268 120 268 q 82 268 53 305 q 25 342 25 394 q 25 467 77 513 q 129 560 212 560 q 300 560 351 516 q 403 471 403 397 q 403 360 389 332 q 375 303 341 270 z"},"{":{"x_min":0,"x_max":500,"ha":500,"o":"m 415 712 q 353 711 329 686 q 306 660 306 583 l 306 516 q 306 406 279 366 q 251 326 177 310 q 251 294 279 254 q 306 214 306 104 l 306 37 q 306 -40 329 -65 q 352 -90 415 -91 l 415 -119 l 410 -119 q 302 -119 261 -83 q 220 -47 220 50 l 220 148 q 220 227 192 257 q 164 288 87 294 l 87 327 q 165 334 192 364 q 220 394 220 473 l 220 571 q 220 668 261 704 q 303 740 415 740 z"},"9":{"x_min":0,"x_max":472,"ha":472,"o":"m 228 466 q 189 466 165 440 q 140 414 140 372 q 140 331 165 304 q 189 277 228 277 q 266 277 291 304 q 316 331 316 372 q 316 413 292 439 q 267 466 228 466 z m 223 560 q 324 560 383 485 q 443 409 443 280 q 443 147 383 67 q 323 -12 224 -12 q 144 -12 87 31 q 31 74 31 127 q 31 152 46 166 q 62 180 90 180 q 110 180 124 171 q 139 163 154 141 q 156 139 159 134 q 192 88 231 88 q 271 88 299 128 q 327 167 327 212 q 327 217 326 221 q 324 224 322 224 q 319 224 310 217 q 267 184 215 184 q 136 184 82 237 q 28 290 28 366 q 28 450 83 505 q 139 560 223 560 z"}," ":{"x_min":0,"x_max":243,"ha":243,"o":""},"I":{"x_min":0,"x_max":463,"ha":463,"o":"m 387 410 l 387 90 l 400 90 q 421 90 433 78 q 446 66 446 46 q 446 33 439 22 q 433 10 414 -8 l 317 -99 q 306 -109 298 -113 q 290 -117 281 -117 q 260 -117 246 -103 q 231 -88 231 -68 q 231 -49 247 -30 q 264 -11 267 -4 q 273 8 275 26 q 278 43 278 90 l 278 392 q 278 423 262 438 q 247 452 212 452 q 167 452 137 426 q 108 400 108 360 q 108 337 119 323 q 130 309 148 309 q 157 309 174 316 q 192 323 203 323 q 225 323 239 308 q 253 292 253 269 q 253 232 226 210 q 198 188 152 188 q 88 188 45 234 q 3 281 3 353 q 3 436 55 490 q 107 543 189 543 q 207 543 253 540 q 300 536 330 536 q 343 536 369 537 q 394 538 405 538 q 431 538 445 527 q 459 516 459 496 q 459 467 416 456 q 410 455 407 454 q 396 452 392 442 q 387 432 387 410 z"},"H":{"x_min":0,"x_max":713,"ha":713,"o":"m 384 410 l 384 303 l 531 303 l 531 410 q 531 433 528 442 q 525 450 518 453 q 514 455 505 458 q 475 467 475 496 q 475 514 485 525 q 495 537 508 537 l 528 537 l 665 537 q 681 537 692 525 q 704 513 704 496 q 704 467 663 456 q 657 455 655 454 q 646 452 642 442 q 638 432 638 410 l 638 90 l 653 90 q 674 90 687 78 q 699 66 699 46 q 699 33 693 22 q 686 10 667 -8 l 571 -99 q 561 -109 552 -113 q 543 -117 534 -117 q 513 -117 499 -103 q 484 -88 484 -68 q 484 -49 500 -30 q 517 -11 520 -4 q 526 8 528 26 q 531 43 531 90 l 531 206 l 384 206 l 384 161 q 384 15 308 -72 q 233 -158 109 -158 q 54 -158 22 -135 q -10 -111 -10 -71 q -10 -44 8 -29 q 26 -14 60 -14 q 67 -14 88 -16 q 109 -17 123 -17 q 195 -17 236 38 q 277 93 277 192 q 277 192 277 203 q 278 215 278 226 l 278 392 q 278 423 262 438 q 247 452 212 452 q 167 452 137 426 q 108 400 108 360 q 108 337 119 323 q 130 309 148 309 q 157 309 174 316 q 192 323 203 323 q 225 323 239 308 q 253 292 253 269 q 253 232 225 210 q 197 188 151 188 q 87 188 45 234 q 3 281 3 353 q 3 436 55 490 q 107 543 189 543 q 202 543 253 540 q 304 536 342 536 q 348 536 368 537 q 387 537 401 537 q 424 537 437 526 q 450 516 450 496 q 450 466 407 455 q 404 454 402 453 q 392 450 388 441 q 384 432 384 410 z"},"4":{"x_min":0,"x_max":454,"ha":454,"o":"m 253 401 l 253 411 q 253 418 251 421 q 249 423 244 423 q 242 423 236 416 q 234 413 233 411 l 140 295 q 139 294 138 292 q 128 280 128 271 q 128 268 130 267 q 132 266 136 266 l 142 266 l 253 266 z m 357 462 l 357 266 l 386 266 q 415 266 427 256 q 438 246 438 222 q 438 198 427 188 q 416 178 386 178 l 357 178 l 357 148 l 359 148 q 379 148 391 137 q 403 125 403 106 q 403 90 396 78 q 389 66 370 52 l 307 4 q 294 -5 285 -9 q 276 -12 266 -12 q 244 -12 230 1 q 216 15 216 35 q 216 49 236 77 q 256 105 256 135 l 256 178 l 99 178 q 60 178 38 199 q 16 219 16 256 q 16 274 22 290 q 28 306 44 326 l 198 516 q 218 541 237 551 q 255 561 279 561 q 319 561 338 537 q 357 513 357 462 z"},"~":{"x_min":0,"x_max":833,"ha":833,"o":"m 747 293 q 697 258 651 241 q 604 224 561 224 q 540 224 516 228 q 492 232 468 241 q 456 245 431 254 q 327 290 275 290 q 235 290 190 271 q 145 253 87 212 l 87 303 q 139 338 186 356 q 232 373 276 373 q 306 373 337 367 q 368 361 419 344 q 426 342 440 336 q 520 308 562 308 q 604 308 648 326 q 693 344 747 383 z"},"D":{"x_min":0,"x_max":660,"ha":660,"o":"m 313 -97 l 178 -97 q 148 -97 136 -86 q 123 -75 123 -50 q 123 -18 165 -5 q 171 -3 174 -2 q 185 1 189 13 q 193 24 193 52 l 193 262 q 193 279 191 290 q 188 301 183 308 q 181 312 173 318 q 154 333 154 352 q 154 373 166 382 q 177 391 207 391 l 269 391 q 297 391 309 383 q 321 374 321 354 q 321 343 310 322 q 300 300 300 279 l 300 0 l 336 0 q 419 0 469 57 q 519 114 519 209 q 519 317 454 380 q 389 444 279 444 q 200 444 157 415 q 114 386 114 332 q 114 299 142 260 q 170 220 170 203 q 170 180 154 165 q 137 149 112 149 q 69 149 36 197 q 4 246 4 314 q 4 421 80 485 q 155 549 284 549 q 436 549 534 455 q 633 361 633 219 q 633 70 549 -13 q 464 -97 313 -97 z"},"^":{"x_min":0,"x_max":1000,"ha":1000,"o":"m 552 714 l 797 438 l 746 438 l 499 632 l 252 438 l 201 438 l 447 714 z"},"0":{"x_min":0,"x_max":486,"ha":486,"o":"m 244 468 q 194 468 167 419 q 140 370 140 277 q 140 184 167 135 q 193 86 244 86 q 295 86 322 135 q 348 184 348 277 q 348 370 321 419 q 294 468 244 468 z m 244 560 q 336 560 396 480 q 457 399 457 274 q 457 149 397 68 q 336 -12 244 -12 q 150 -12 91 67 q 31 147 31 274 q 31 401 91 481 q 150 560 244 560 z"},"F":{"x_min":0,"x_max":650,"ha":650,"o":"m 598 535 l 637 429 q 640 420 642 414 q 643 408 643 403 q 643 386 629 375 q 615 364 593 364 q 575 364 553 394 q 540 412 532 419 q 520 430 504 435 q 489 440 462 440 l 384 440 l 384 296 l 442 296 q 443 318 455 329 q 467 341 489 341 q 508 341 519 332 q 530 324 539 300 l 575 199 q 578 191 580 184 q 581 178 581 173 q 581 156 568 145 q 554 134 532 134 q 518 134 490 167 q 462 199 430 199 l 384 199 l 384 90 l 399 90 q 420 90 432 78 q 445 66 445 46 q 445 33 438 21 q 432 9 414 -8 l 317 -99 q 306 -109 298 -113 q 290 -117 281 -117 q 260 -117 246 -103 q 231 -88 231 -68 q 231 -49 247 -30 q 263 -10 266 -4 q 272 9 275 29 q 278 48 278 90 l 278 387 q 278 418 262 433 q 246 447 211 447 q 166 447 136 421 q 107 395 107 355 q 107 332 118 318 q 129 303 147 303 q 156 303 173 311 q 191 318 202 318 q 224 318 238 303 q 252 288 252 264 q 252 227 224 205 q 196 183 150 183 q 85 183 44 229 q 2 275 2 347 q 2 395 20 435 q 39 474 73 501 q 98 521 130 529 q 161 537 230 537 l 241 537 l 509 537 q 518 551 529 557 q 540 563 555 563 q 570 563 582 555 q 593 548 598 535 z"},"`":{"x_min":0,"x_max":500,"ha":500,"o":"m 194 563 l 299 438 q 299 438 300 437 q 306 429 306 424 q 306 417 300 410 q 294 404 287 404 q 284 404 280 405 q 277 407 273 410 l 142 503 q 135 508 130 517 q 125 526 125 534 q 125 548 139 562 q 152 576 167 576 q 174 576 181 573 q 189 569 194 563 z"},"k":{"x_min":0,"x_max":426,"ha":426,"o":"m 167 502 l 167 301 q 167 292 166 281 q 166 278 166 278 q 166 273 168 271 q 169 269 173 269 q 178 269 191 286 q 205 303 217 315 q 247 344 276 358 q 306 373 333 373 q 361 373 377 359 q 393 345 393 321 q 393 281 330 272 q 322 271 318 270 q 305 268 291 262 q 277 256 261 245 q 289 221 312 188 q 335 154 353 114 q 354 112 355 108 q 364 88 382 78 q 395 71 401 60 q 408 48 408 34 q 408 19 399 10 q 390 0 376 0 l 287 0 q 262 0 251 8 q 240 16 240 34 q 240 49 250 63 q 259 78 259 83 q 259 108 223 154 q 188 199 174 199 q 169 199 168 197 q 166 195 166 190 q 166 189 166 188 q 167 177 167 168 l 167 115 q 167 91 190 76 q 214 61 214 40 q 214 20 204 10 q 195 0 174 0 l 67 0 q 39 0 26 9 q 13 18 13 37 q 13 63 43 77 q 53 81 58 84 q 65 88 69 98 q 72 108 72 130 l 72 419 l 59 419 q 39 419 29 428 q 18 437 18 453 q 18 464 23 472 q 27 480 38 489 l 95 534 q 105 542 114 546 q 122 549 133 549 q 151 549 159 538 q 167 528 167 502 z"},"u":{"x_min":0,"x_max":426,"ha":426,"o":"m 157 326 l 157 163 q 157 125 168 112 q 178 98 205 98 q 235 98 249 122 q 262 146 262 198 l 262 243 l 251 243 q 231 243 220 252 q 210 260 210 277 q 210 288 215 296 q 219 305 230 313 l 287 358 q 297 366 305 370 q 314 373 325 373 q 343 373 351 363 q 359 352 359 326 l 359 110 q 359 92 379 77 q 400 62 400 37 q 400 19 391 9 q 381 0 363 0 l 301 0 q 287 0 279 7 q 271 13 271 25 l 271 31 q 271 38 269 40 q 268 42 264 42 q 261 42 251 32 q 211 -12 159 -12 q 109 -12 85 16 q 62 44 62 105 l 62 243 l 49 243 q 29 243 18 252 q 8 260 8 277 q 8 288 12 296 q 17 305 28 313 l 86 358 q 96 366 105 370 q 113 373 124 373 q 142 373 149 363 q 157 353 157 326 z"},"]":{"x_min":0,"x_max":324,"ha":324,"o":"m 191 537 q 208 537 217 527 q 227 517 227 500 l 227 -167 q 227 -184 217 -194 q 208 -204 191 -204 l 67 -204 q 45 -204 34 -193 q 22 -182 22 -162 q 22 -142 33 -132 q 45 -121 67 -121 l 108 -121 q 121 -121 125 -116 q 130 -112 130 -98 l 130 431 q 130 445 125 449 q 121 454 108 454 l 67 454 q 45 454 33 465 q 22 475 22 495 q 22 515 34 526 q 45 537 67 537 z"},"U":{"x_min":0,"x_max":722,"ha":722,"o":"m 377 410 l 377 124 q 377 45 396 18 q 414 -10 459 -10 q 501 -10 521 16 q 541 42 541 99 q 541 100 541 102 q 542 114 542 124 l 542 410 q 542 433 538 442 q 534 451 525 453 q 523 454 520 455 q 478 466 478 496 q 478 515 489 526 q 499 537 516 537 l 536 537 l 676 537 q 692 537 703 526 q 714 514 714 496 q 714 467 670 455 q 668 455 666 454 q 657 451 652 441 q 648 431 648 410 l 648 118 q 648 -1 602 -59 q 555 -116 459 -116 q 409 -116 372 -99 q 335 -82 308 -46 q 288 -19 280 13 q 271 45 271 118 l 271 392 q 271 423 256 438 q 241 452 209 452 q 162 452 134 427 q 105 401 105 360 q 105 337 116 323 q 126 309 144 309 q 153 309 169 316 q 186 323 197 323 q 218 323 231 308 q 245 292 245 269 q 245 232 218 210 q 191 188 147 188 q 83 188 42 234 q 0 281 0 353 q 0 436 52 490 q 104 543 186 543 q 204 543 251 540 q 297 536 326 536 q 339 536 362 537 q 384 537 393 537 q 415 537 428 526 q 441 515 441 496 q 441 466 399 455 q 396 454 394 453 q 385 451 381 442 q 377 433 377 410 z"},"o":{"x_min":0,"x_max":376,"ha":376,"o":"m 187 280 q 156 280 139 255 q 123 230 123 183 q 123 136 139 111 q 156 86 187 86 q 219 86 236 111 q 253 136 253 183 q 253 230 236 255 q 219 280 187 280 z m 188 373 q 260 373 306 320 q 352 266 352 181 q 352 96 306 42 q 260 -12 188 -12 q 116 -12 70 42 q 24 95 24 181 q 24 266 70 320 q 116 373 188 373 z"},"N":{"x_min":0,"x_max":713,"ha":713,"o":"m 422 494 l 512 356 q 514 353 516 349 q 521 341 527 341 q 529 341 530 342 q 531 343 531 347 l 531 358 l 531 410 q 531 433 528 442 q 525 450 518 453 q 514 455 505 458 q 475 467 475 496 q 475 514 485 525 q 495 537 508 537 l 528 537 l 665 537 q 681 537 692 525 q 704 513 704 496 q 704 467 663 456 q 657 455 655 454 q 646 452 642 442 q 638 432 638 410 l 638 90 l 653 90 q 674 90 687 78 q 699 66 699 46 q 699 33 693 22 q 686 10 667 -8 l 571 -99 q 561 -109 552 -113 q 543 -117 534 -117 q 513 -117 499 -103 q 484 -88 484 -68 q 484 -49 500 -30 q 517 -11 520 -4 q 526 8 528 26 q 531 43 531 90 l 531 146 l 404 343 q 403 345 401 349 q 396 358 390 358 q 387 358 385 357 q 384 355 384 351 l 384 341 l 384 173 q 384 86 368 34 q 353 -18 316 -61 q 276 -108 223 -133 q 170 -158 109 -158 q 54 -158 22 -135 q -10 -111 -10 -71 q -10 -44 8 -29 q 26 -14 60 -14 q 67 -14 88 -16 q 109 -17 123 -17 q 195 -17 236 38 q 277 93 277 192 q 277 192 277 203 q 278 215 278 226 l 278 392 q 278 423 262 438 q 247 452 212 452 q 167 452 137 426 q 108 400 108 360 q 108 337 119 323 q 130 309 148 309 q 157 309 174 316 q 192 323 203 323 q 225 323 239 308 q 253 292 253 269 q 253 232 225 210 q 197 188 151 188 q 87 188 45 234 q 3 281 3 353 q 3 437 55 490 q 106 543 188 543 q 205 543 240 541 q 276 538 295 538 q 298 538 315 539 q 332 539 346 539 q 373 539 388 531 q 403 524 422 494 z"},"+":{"x_min":0,"x_max":833,"ha":833,"o":"m 458 596 l 458 339 l 709 339 l 709 258 l 458 258 l 458 0 l 375 0 l 375 258 l 124 258 l 124 339 l 375 339 l 375 596 z"},"G":{"x_min":0,"x_max":757,"ha":757,"o":"m 411 375 q 443 355 473 344 q 503 333 527 333 q 559 333 577 348 q 595 363 595 389 q 595 415 575 433 q 555 451 526 451 q 493 451 463 432 q 434 412 411 375 z m 392 281 q 392 280 392 278 q 388 257 388 247 q 388 195 421 160 q 454 125 501 125 q 548 125 586 177 q 600 194 607 202 q 616 212 627 216 q 639 220 658 220 l 688 220 q 712 220 723 211 q 734 203 734 183 q 734 172 724 147 q 715 123 715 100 l 715 41 q 715 -67 658 -126 q 602 -185 498 -185 q 405 -185 338 -134 q 271 -83 271 -20 q 271 9 287 28 q 304 47 329 47 q 370 47 404 -20 q 409 -30 412 -36 q 423 -57 449 -71 q 476 -86 503 -86 q 553 -86 581 -48 q 609 -11 609 58 q 609 61 608 62 q 607 63 604 63 q 602 63 595 58 q 555 25 494 25 q 399 25 339 89 q 279 152 279 254 q 279 279 282 301 q 286 324 293 345 q 266 368 239 379 q 212 391 187 391 q 153 391 132 372 q 111 353 111 323 q 111 304 123 291 q 135 278 153 278 q 161 278 179 282 q 197 287 206 287 q 227 287 240 271 q 253 256 253 231 q 253 200 222 177 q 192 153 149 153 q 86 153 44 200 q 2 248 2 320 q 2 399 51 449 q 99 498 177 498 q 217 498 257 483 q 296 467 334 437 q 366 492 417 521 q 469 549 535 549 q 612 549 662 501 q 713 454 713 380 q 713 312 667 269 q 621 226 547 226 q 505 226 467 240 q 429 253 392 281 z"},"q":{"x_min":0,"x_max":427,"ha":427,"o":"m 372 249 l 372 9 l 376 9 q 392 9 403 -2 q 413 -13 413 -30 q 413 -42 407 -52 q 401 -63 383 -79 l 318 -139 q 310 -147 302 -151 q 294 -154 285 -154 q 269 -154 256 -141 q 243 -127 243 -110 q 243 -103 259 -77 q 274 -52 274 -19 l 274 168 q 274 227 258 250 q 243 274 206 274 q 169 274 147 250 q 125 225 125 184 q 125 146 142 122 q 160 98 188 98 q 194 98 205 99 q 215 100 219 100 q 230 100 239 89 q 248 79 248 62 q 248 31 224 10 q 199 -11 163 -11 q 104 -11 64 41 q 24 93 24 173 q 24 261 69 317 q 115 373 186 373 q 235 373 266 339 q 274 330 278 330 q 279 330 294 356 q 309 382 337 382 q 358 382 370 370 q 382 358 382 338 q 382 332 377 302 q 372 273 372 249 z"},"d":{"x_min":0,"x_max":433,"ha":433,"o":"m 372 502 l 372 129 q 372 110 374 102 q 375 94 380 89 q 383 85 392 80 q 414 66 414 41 q 414 21 403 11 q 392 0 371 0 l 321 0 q 295 0 284 13 q 274 26 274 63 l 274 175 q 274 224 255 250 q 236 275 200 275 q 165 275 145 250 q 125 226 125 182 q 125 146 143 121 q 161 97 188 97 q 194 97 203 100 q 212 102 216 102 q 232 102 241 91 q 251 81 251 62 q 251 30 226 10 q 201 -11 162 -11 q 101 -11 62 42 q 24 96 24 182 q 24 267 66 320 q 108 374 171 374 q 206 374 237 356 q 268 338 269 338 q 274 338 275 340 q 277 342 277 352 l 277 415 l 259 415 q 239 415 229 425 q 218 434 218 451 q 218 463 222 472 q 227 480 238 488 l 300 534 l 301 535 q 321 549 338 549 q 356 549 364 538 q 372 528 372 502 z"},"1":{"x_min":0,"x_max":269,"ha":269,"o":"m 195 515 l 195 130 q 195 111 198 101 q 200 90 205 86 q 209 83 219 78 q 248 64 248 37 q 248 18 237 9 q 226 0 202 0 l 81 0 q 57 0 46 9 q 35 18 35 37 q 35 63 62 78 q 70 82 75 85 q 82 89 84 99 q 87 108 87 130 l 87 424 l 75 424 q 56 424 46 433 q 35 441 35 457 q 35 469 40 477 q 44 485 56 494 l 118 539 q 129 547 139 550 q 148 553 159 553 q 176 553 186 543 q 195 533 195 515 z"},"5":{"x_min":0,"x_max":454,"ha":454,"o":"m 388 500 l 372 456 q 364 433 355 427 q 346 420 331 420 q 315 420 292 438 q 269 456 245 456 l 174 456 l 162 371 l 165 366 q 184 374 201 377 q 218 381 237 381 q 323 381 375 327 q 428 273 428 186 q 428 100 372 44 q 316 -12 228 -12 q 141 -12 81 39 q 22 90 22 164 q 22 203 39 223 q 56 243 88 243 q 113 243 126 230 q 139 218 141 190 q 145 140 167 115 q 189 90 230 90 q 269 90 292 117 q 316 145 316 192 q 316 236 292 263 q 268 289 227 289 q 212 289 184 278 q 155 266 130 266 l 91 266 q 66 266 57 274 q 48 282 48 302 q 48 315 48 321 q 48 326 49 329 l 68 506 q 70 527 85 538 q 101 549 129 550 l 314 550 q 322 556 331 559 q 339 562 348 562 q 368 562 380 550 q 392 538 392 519 q 392 515 391 510 q 390 505 388 500 z"}}}
